<svg width="32" height="32" viewBox="0 0 20 22" fill="none" xmlns="http://www.w3.org/2000/svg">
<rect x="1" y="3" width="18" height="18" rx="2.11111" stroke="#E0E0E0" stroke-width="1.05556"/>
<path d="M1 7C1 5.22482 1 4.33723 1.50016 3.7467C1.5754 3.65786 1.65786 3.5754 1.7467 3.50016C2.33723 3 3.22482 3 5 3H15C16.7752 3 17.6628 3 18.2533 3.50016C18.3421 3.5754 18.4246 3.65786 18.4998 3.7467C19 4.33723 19 5.22482 19 7V7H1V7Z" fill="#E0E0E0"/>
<path d="M4.22222 1L4.22222 3.02315" stroke="#E0E0E0" stroke-width="1.05556" stroke-linecap="round"/>
<path d="M15.8333 1L15.8333 3.02315" stroke="#E0E0E0" stroke-width="1.05556" stroke-linecap="round"/>
<path d="M4 9H8" stroke="#7B49AA" stroke-linecap="round"/>
<path d="M5 19H15" stroke="#E0E0E0" stroke-width="0.3" stroke-linecap="round"/>
<path d="M5 17H15" stroke="#E0E0E0" stroke-width="0.3" stroke-linecap="round"/>
<path d="M5 15H15" stroke="#E0E0E0" stroke-width="0.3" stroke-linecap="round"/>
<path d="M5 13H15" stroke="#E0E0E0" stroke-width="0.3" stroke-linecap="round"/>
<path d="M5 11H15" stroke="#E0E0E0" stroke-width="0.3" stroke-linecap="round"/>
</svg>
