<svg width="35" height="35" viewBox="0 0 21 22" fill="none" xmlns="http://www.w3.org/2000/svg">
<rect x="1" y="3.02315" width="19" height="18.2083" rx="2.11111" stroke="#E0E0E0" stroke-width="1.05556"/>
<path d="M1 7.06944C1 5.24961 1 4.33969 1.52389 3.74231C1.58465 3.67303 1.64988 3.6078 1.71916 3.54704C2.31655 3.02315 3.22646 3.02315 5.0463 3.02315H15.9537C17.7735 3.02315 18.6835 3.02315 19.2808 3.54704C19.3501 3.6078 19.4153 3.67303 19.4761 3.74231C20 4.33969 20 5.24961 20 7.06944V7.06944H1V7.06944Z" fill="#E0E0E0"/>
<path d="M5.22222 1L5.22222 3.02315" stroke="#E0E0E0" stroke-width="1.05556" stroke-linecap="round"/>
<path d="M16.8333 1L16.8333 3.02315" stroke="#E0E0E0" stroke-width="1.05556" stroke-linecap="round"/>
<rect x="3.11111" y="8.08102" width="2.11111" height="2.02315" rx="0.527778" fill="#E0E0E0"/>
<rect x="3.11111" y="11.1158" width="2.11111" height="2.02315" rx="0.527778" fill="#E0E0E0"/>
<rect x="3.11111" y="14.1505" width="2.11111" height="2.02315" rx="0.527778" fill="#E0E0E0"/>
<rect x="3.11111" y="17.1852" width="2.11111" height="2.02315" rx="0.527778" fill="#E0E0E0"/>
<rect x="6.27778" y="8.08102" width="2.11111" height="2.02315" rx="0.527778" fill="#E0E0E0"/>
<rect x="6.27778" y="11.1158" width="2.11111" height="2.02315" rx="0.527778" fill="#E0E0E0"/>
<rect x="6.27778" y="14.1505" width="2.11111" height="2.02315" rx="0.527778" fill="#E0E0E0"/>
<rect x="6.27778" y="17.1852" width="2.11111" height="2.02315" rx="0.527778" fill="#E0E0E0"/>
<rect x="9.44444" y="8.08102" width="2.11111" height="2.02315" rx="0.527778" fill="#E0E0E0"/>
<rect x="9.44444" y="11.1158" width="2.11111" height="2.02315" rx="0.527778" fill="#E0E0E0"/>
<rect x="9.44444" y="14.1505" width="2.11111" height="2.02315" rx="0.527778" fill="#E0E0E0"/>
<rect x="9.44444" y="17.1852" width="2.11111" height="2.02315" rx="0.527778" fill="#E0E0E0"/>
<rect x="12.6111" y="8.08102" width="2.11111" height="2.02315" rx="0.527778" fill="#E0E0E0"/>
<rect x="12.6111" y="11.1158" width="2.11111" height="2.02315" rx="0.527778" fill="#E0E0E0"/>
<rect x="12.6111" y="14.1505" width="2.11111" height="2.02315" rx="0.527778" fill="#7B49AA"/>
<rect x="12.6111" y="17.1852" width="2.11111" height="2.02315" rx="0.527778" fill="#E0E0E0"/>
<rect x="15.7778" y="8.08102" width="2.11111" height="2.02315" rx="0.527778" fill="#E0E0E0"/>
<rect x="15.7778" y="11.1158" width="2.11111" height="2.02315" rx="0.527778" fill="#E0E0E0"/>
<rect x="15.7778" y="14.1505" width="2.11111" height="2.02315" rx="0.527778" fill="#E0E0E0"/>
<rect x="15.7778" y="17.1852" width="2.11111" height="2.02315" rx="0.527778" fill="#E0E0E0"/>
</svg>
